<svg version="1.1" id="Layer_1" xmlns="http://www.w3.org/2000/svg" xmlns:xlink="http://www.w3.org/1999/xlink" x="0px" y="0px" viewBox="0 0 500 500" style="width: 144px;" xml:space="preserve" data-imageid="bitcoin-50" imageName="Bitcoin" class="illustrations_image">
<style type="text/css">
	.st0_bitcoin-50{fill:#FFBC0E;}
	.st1_bitcoin-50{fill:#093F68;}
	.st2_bitcoin-50{fill:#FFFFFF;}
	.st3_bitcoin-50{fill:#68E1FD;}
</style>
<g id="dollar_bitcoin-50">
	<circle class="st0_bitcoin-50" cx="378.2" cy="250" r="103.7"/>
	<path class="st1_bitcoin-50" d="M378.2,355.6c-58.3,0-105.6-47.3-105.6-105.6s47.3-105.6,105.6-105.6c58.3,0,105.6,47.3,105.6,105.6&#10;&#9;&#9;c0,0,0,0,0,0C483.7,308.3,436.5,355.5,378.2,355.6z M378.2,148.2c-56.2,0-101.7,45.6-101.7,101.7S322,351.7,378.2,351.7&#10;&#9;&#9;c56.2,0,101.7-45.5,101.7-101.7C479.9,193.8,434.3,148.3,378.2,148.2z"/>
	<path class="st1_bitcoin-50" d="M378.2,339.9c-49.6,0-89.9-40.2-89.9-89.9c0-49.6,40.2-89.9,89.9-89.9s89.9,40.2,89.9,89.9c0,0,0,0,0,0&#10;&#9;&#9;C468,299.6,427.8,339.8,378.2,339.9z M378.2,164c-47.5,0-86,38.5-86,86s38.5,86,86,86s86-38.5,86-86&#10;&#9;&#9;C464.1,202.5,425.6,164.1,378.2,164L378.2,164z"/>
	<path class="st2_bitcoin-50" d="M369.6,309.2v-9.4c-3.4-0.9-6.7-1.6-9.9-2.7c-6.2-2-11.6-6-15.3-11.5c-3-4.7-4.5-10.3-4.4-15.9h18.3&#10;&#9;&#9;c0.8,6.8,4.1,11.7,11.2,13.6v-24.9c-3.7-1.1-7.3-2.1-11-3.2c-4-1.1-7.6-3.2-10.6-6.1c-3.1-3.1-5.2-7.2-5.9-11.5&#10;&#9;&#9;c-1.1-5.3-0.7-10.8,1.2-15.9c2.7-7.4,8.6-13.3,16.1-15.9c3-1,6.1-1.8,9.3-2.4c0.3-0.1,0.7-0.1,1.1-0.2v-12.4h17.1v1.3&#10;&#9;&#9;c0,3.6,0,7.1,0,10.6c0,0.9,0.3,1.1,1.1,1.3c5.9,1.1,11.4,3.7,16,7.5c4.9,4,8.1,9.7,9.1,15.9c0.3,1.7,0.4,3.4,0.6,5.2h-18.7&#10;&#9;&#9;c-0.1-5.2-3.3-9.8-8.1-11.8v23.1c0.6,0.1,1.3,0.3,2,0.5c5,1,9.9,2.5,14.6,4.7c7.5,3.5,11.7,9.5,12.7,17.7&#10;&#9;&#9;c0.9,7.3-0.5,14.1-4.8,20.2c-3.4,4.8-8.3,8.4-13.8,10.2c-3.4,1.2-7,2-10.7,3v9.1L369.6,309.2z M386.8,262.1v21.6&#10;&#9;&#9;c2.8-0.4,5.4-1.6,7.6-3.4c4-3.3,5.4-11.4-0.4-15C391.6,264.1,389.2,263,386.8,262.1z M369.5,239.9v-20.9c-2.2,1-4.4,2.1-6.5,3.3&#10;&#9;&#9;c-4.8,3.2-5.5,12,0.6,15.1C365.4,238.4,367.5,239.1,369.5,239.9L369.5,239.9z"/>
	<path class="st1_bitcoin-50" d="M386.7,311.2h-17.1c-1.1,0-1.9-0.9-1.9-1.9l0,0v-7.9l-1.7-0.4c-2.3-0.6-4.6-1.2-6.9-2&#10;&#9;&#9;c-6.6-2.1-12.4-6.4-16.3-12.2c-3.2-5.1-4.9-11-4.7-16.9c0-1.1,0.8-2,1.9-2c0,0,0,0,0,0h18.3c1,0,1.8,0.7,1.9,1.7&#10;&#9;&#9;c0.7,5.6,3,9.2,7.4,11.1V260l-2-0.6c-2.6-0.7-5.1-1.5-7.6-2.3c-4.3-1.2-8.2-3.5-11.4-6.5c-3.4-3.4-5.7-7.9-6.4-12.6&#10;&#9;&#9;c-1.2-5.7-0.7-11.6,1.3-17c2.9-7.9,9.2-14.2,17.2-17c2.2-0.8,4.4-1.4,6.6-1.8l2.5-0.6v-10.9c0-1.1,0.9-1.9,1.9-1.9l0,0h17.1&#10;&#9;&#9;c1.1,0,1.9,0.9,1.9,1.9l0,0v4.1c0,2.4,0,4.9,0,7.3c6,1.2,11.6,3.9,16.3,7.8c5.2,4.3,8.7,10.4,9.8,17.1c0.2,1.2,0.3,2.4,0.5,3.6&#10;&#9;&#9;c0.1,0.6,0.1,1.1,0.2,1.7c0.1,0.6-0.1,1.1-0.5,1.5c-0.4,0.4-0.9,0.7-1.5,0.7h-18.6c-1,0-1.9-0.8-1.9-1.8c0-3.3-1.6-6.4-4.2-8.5&#10;&#9;&#9;v18.2l0.5,0.1c5.2,1,10.2,2.6,15,4.8c8,3.8,12.7,10.2,13.8,19.2c1,8.2-0.8,15.4-5.2,21.6c-3.6,5.1-8.8,8.9-14.7,10.9&#10;&#9;&#9;c-2.4,0.8-4.9,1.5-7.4,2.1l-2,0.5v7.6C388.6,310.3,387.8,311.1,386.7,311.2z M371.5,307.3h13.3v-7.1c0-0.9,0.6-1.6,1.4-1.9&#10;&#9;&#9;c1.2-0.3,2.3-0.6,3.5-0.9c2.5-0.6,4.8-1.2,7.1-2c5.2-1.8,9.7-5.1,12.9-9.5c3.9-5.4,5.4-11.5,4.5-18.8c-0.9-7.6-4.7-12.9-11.5-16.1&#10;&#9;&#9;c-4.5-2.1-9.3-3.6-14.2-4.5L387,246l-0.6-0.1c-0.9-0.2-1.5-1-1.5-1.9v-23.2c0-1.1,0.9-1.9,1.9-1.9c0.3,0,0.6,0.1,0.8,0.2&#10;&#9;&#9;c5.2,2.4,8.2,6.3,9,11.6h14.7c-0.1-1-0.2-2-0.4-3c-0.9-5.8-3.9-11-8.4-14.8c-4.4-3.6-9.6-6-15.1-7c-1.6-0.2-2.8-1.6-2.7-3.3&#10;&#9;&#9;c0-2.6,0-5.1,0-7.7v-2.2h-13.2v10.5c0,0.9-0.6,1.7-1.5,1.9l-0.4,0.1c-0.2,0-0.4,0.1-0.6,0.1c-1,0.2-2,0.5-3,0.7&#10;&#9;&#9;c-2.1,0.4-4.1,0.9-6.1,1.6c-6.9,2.5-12.4,7.9-14.9,14.8c-1.7,4.8-2.1,10-1.1,14.9c0.6,4,2.5,7.7,5.4,10.5c2.8,2.6,6.2,4.6,9.9,5.6&#10;&#9;&#9;c2.5,0.8,5,1.5,7.5,2.2l3.4,1c0.8,0.2,1.4,1,1.4,1.9v24.9c0,0.6-0.3,1.2-0.8,1.5c-0.5,0.4-1.1,0.5-1.7,0.3&#10;&#9;&#9;c-6.9-1.8-11-6.4-12.4-13.5H342c0.2,4.6,1.5,9,4,12.9c3.4,5.1,8.5,8.8,14.3,10.7c2.1,0.7,4.3,1.3,6.6,1.9c1.1,0.3,2.1,0.5,3.2,0.8&#10;&#9;&#9;c0.8,0.2,1.4,1,1.4,1.9L371.5,307.3z M386.8,285.6c-1.1,0-1.9-0.9-1.9-1.9c0,0,0,0,0,0v-21.6c0-1.1,0.9-1.9,1.9-1.9&#10;&#9;&#9;c0.3,0,0.6,0.1,0.8,0.2c0.8,0.4,1.5,0.7,2.3,1c1.7,0.7,3.4,1.5,5,2.4c2.8,1.7,4.6,4.7,4.8,8c0.2,3.8-1.3,7.6-4.1,10.1&#10;&#9;&#9;c-2.4,2-5.4,3.3-8.5,3.8C387,285.6,386.9,285.6,386.8,285.6z M388.7,265v16.2c1.6-0.5,3.1-1.3,4.4-2.4c1.9-1.7,2.9-4.3,2.7-6.8&#10;&#9;&#9;c-0.1-2.1-1.2-4-3-5C391.6,266.2,390.2,265.6,388.7,265z M369.5,241.9c-0.3,0-0.5,0-0.7-0.1c-0.6-0.3-1.3-0.5-1.9-0.8&#10;&#9;&#9;c-1.4-0.5-2.8-1.1-4.2-1.8c-3.2-1.6-5.3-4.8-5.4-8.4c-0.3-3.9,1.4-7.7,4.6-10c1.5-0.9,3-1.7,4.6-2.4c0.7-0.3,1.4-0.6,2.1-1&#10;&#9;&#9;c1-0.5,2.1-0.1,2.6,0.9c0.1,0.3,0.2,0.6,0.2,0.9v20.9c0,0.6-0.3,1.2-0.9,1.6C370.3,241.8,369.9,241.9,369.5,241.9L369.5,241.9z&#10;&#9;&#9; M367.6,222.2c-1.2,0.5-2.4,1.2-3.5,1.9c-2,1.5-3.1,4-2.9,6.5c0,2.2,1.3,4.2,3.3,5.2c1,0.5,2,0.9,3.2,1.4L367.6,222.2z"/>
</g>
<g id="bitcoin_bitcoin-50">
	<circle class="st3_bitcoin-50 targetColor" cx="121.8" cy="250" r="103.7" style="fill: rgb(104, 225, 253);"/>
	<path class="st1_bitcoin-50" d="M121.8,355.6c-58.3,0-105.6-47.3-105.6-105.6s47.3-105.6,105.6-105.6S227.4,191.7,227.4,250c0,0,0,0,0,0&#10;&#9;&#9;C227.4,308.3,180.1,355.5,121.8,355.6z M121.8,148.2c-56.2,0-101.7,45.6-101.7,101.7s45.6,101.7,101.7,101.7&#10;&#9;&#9;c56.2,0,101.7-45.5,101.7-101.7C223.5,193.8,178,148.3,121.8,148.2z"/>
	<path class="st1_bitcoin-50" d="M121.8,339.9c-49.6,0-89.9-40.2-89.9-89.9s40.2-89.9,89.9-89.9s89.9,40.2,89.9,89.9c0,0,0,0,0,0&#10;&#9;&#9;C211.6,299.6,171.4,339.8,121.8,339.9z M121.8,164c-47.5,0-86,38.5-86,86s38.5,86,86,86s86-38.5,86-86&#10;&#9;&#9;C207.8,202.5,169.3,164.1,121.8,164L121.8,164z"/>
	<path class="st2_bitcoin-50" d="M132.9,190.1v13.7c0,0,12.3,0.5,17.7,3.1c10.4,5,16.6,12,12.9,25.3c-2.4,8.8-10.3,13.4-10.2,13.5&#10;&#9;&#9;s17.5,3,15.8,26.1c-2.1,28.6-36.3,24.9-36.3,24.9V310c0,2.9-2.4,5.3-5.3,5.3h-1.6c-2.9,0-5.3-2.4-5.3-5.3v-14h-9.8v14&#10;&#9;&#9;c0,2.9-2.3,5.3-5.3,5.3c0,0,0,0,0,0h-1.6c-2.9,0-5.3-2.3-5.3-5.3c0,0,0,0,0,0v-14.6H74.4c0.9-5.2,1.7-9.8,2.5-14.8&#10;&#9;&#9;c2.7,0,5.1-0.1,7.6,0c4.1,0.2,5.8-1.9,5.8-5.9c0-14.4,0.1-28.8,0.2-43.1c0-0.6,0-1.2,0-1.8c0.1-12-0.7-12.8-12.5-12.8h-2.9v-12.7&#10;&#9;&#9;h24.2V190c0-2.9,2.4-5.3,5.3-5.3c0,0,0,0,0,0h1.6c2.9,0,5.3,2.3,5.3,5.3c0,0,0,0,0,0v13.6h9.3v-13.5c0-2.9,2.4-5.3,5.3-5.3&#10;&#9;&#9;c0,0,0,0,0,0h1.7C130.6,184.9,132.9,187.2,132.9,190.1z M111.7,256.7v24c8.4,0.4,16.5,0.5,24.4-2.1c6-2,9-5.7,9.1-10.6&#10;&#9;&#9;c0.1-5.3-3-9.9-9.3-11.3C128.2,255.1,111.7,256.7,111.7,256.7z M111.8,242.1c7.2,0.5,14.3,0.3,21.1-2.3c4.1-1.3,6.8-5.1,6.8-9.4&#10;&#9;&#9;c0.2-4.6-2.4-8.3-7.1-10.1c-6.7-2.6-13.7-2.4-20.8-2L111.8,242.1z"/>
	<path class="st1_bitcoin-50" d="M127.5,317.2h-1.6c-4,0-7.2-3.2-7.2-7.2v-12.1h-5.9v12c0,4-3.2,7.2-7.2,7.2h-1.6c-4,0-7.2-3.2-7.2-7.2v-12.6&#10;&#9;&#9;H74.4c-0.6,0-1.1-0.3-1.5-0.7c-0.4-0.4-0.5-1-0.4-1.6l2.5-14.7c0.2-0.9,1-1.6,1.9-1.6h2.5c1.8,0,3.5,0,5.2,0c1,0.2,2-0.1,2.9-0.7&#10;&#9;&#9;c0.7-0.9,1-2.1,0.9-3.2c0-10.4,0.1-20.8,0.1-31.1l0.1-13.8c0-4.8-0.1-8.3-1.2-9.5s-3.9-1.3-9.3-1.3h-2.9c-1.1,0-1.9-0.9-1.9-1.9&#10;&#9;&#9;l0,0v-12.7c0-1.1,0.9-1.9,1.9-1.9c0,0,0,0,0,0h22.2V190c0-4,3.2-7.2,7.2-7.2h1.6c4,0,7.2,3.2,7.2,7.2v11.7h5.4v-11.5&#10;&#9;&#9;c0-4,3.2-7.2,7.2-7.2h1.7c4,0,7.2,3.2,7.2,7.2V202c3.7,0.2,12.1,1,16.6,3.2c8.2,3.9,18.5,11,13.9,27.6c-1.4,4.8-4.2,9-8,12.2&#10;&#9;&#9;c5.5,2.4,15,9.2,13.7,27c-0.6,8.1-3.7,14.5-9.2,19.1c-9.1,7.5-22,7.9-27.1,7.7V310C134.8,314,131.6,317.2,127.5,317.2&#10;&#9;&#9;C127.6,317.2,127.5,317.2,127.5,317.2z M110.9,294h9.8c1.1,0,1.9,0.9,1.9,1.9l0,0V310c0,1.8,1.5,3.3,3.3,3.3h1.6&#10;&#9;&#9;c1.8,0,3.3-1.5,3.3-3.3v-13.3c0-1.1,0.9-1.9,1.9-1.9c0.1,0,0.2,0,0.2,0c0.2,0,16.4,1.7,26.4-6.7c4.7-3.9,7.3-9.4,7.8-16.4&#10;&#9;&#9;c1.6-21.1-13.5-24-14.2-24.1c-0.8-0.2-1.4-0.8-1.6-1.6c-0.1-0.9,0.3-1.7,1.1-2.1c6-4.2,8.2-9,9.1-12.2c3-10.7-0.6-17.6-11.9-23&#10;&#9;&#9;c-5-2.4-16.8-2.9-17-2.9c-1,0-1.9-0.9-1.9-1.9v-13.8c0-1.8-1.5-3.3-3.3-3.3H126c-1.8,0-3.3,1.5-3.3,3.3v13.4c0,1.1-0.9,1.9-1.9,1.9&#10;&#9;&#9;c0,0,0,0,0,0h-9.3c-1.1,0-1.9-0.9-1.9-1.9l0,0V190c0-1.8-1.5-3.3-3.3-3.3h-1.6c-1.8,0-3.3,1.5-3.3,3.3v14.4c0,1.1-0.9,1.9-1.9,1.9&#10;&#9;&#9;c0,0,0,0,0,0H77v8.8h0.9c6,0,9.8,0.2,12.1,2.4s2.4,6.2,2.4,12.3l-0.1,13.8c-0.1,10.4-0.1,20.8-0.1,31.1c0,2.7-0.7,4.7-2.1,6&#10;&#9;&#9;s-3.2,1.9-5.7,1.8c-1.7-0.1-3.3,0-5,0h-0.9l-1.8,10.9h22.1c1.1,0,1.9,0.9,1.9,1.9l0,0V310c0,1.8,1.5,3.3,3.3,3.3h1.6&#10;&#9;&#9;c1.8,0,3.3-1.5,3.3-3.3v-14C108.9,294.9,109.8,294,110.9,294C110.9,294,110.9,294,110.9,294z M119.1,282.8c-2.6,0-5.1-0.1-7.5-0.2&#10;&#9;&#9;c-1-0.1-1.8-0.9-1.8-1.9v-24c0-1,0.8-1.8,1.8-1.9c0.7-0.1,16.9-1.6,24.8,0.1c6.8,1.4,10.9,6.5,10.8,13.2&#10;&#9;&#9;c-0.1,5.8-3.8,10.2-10.4,12.4C131,282.2,125.1,283,119.1,282.8L119.1,282.8z M113.6,278.8c7.2,0.3,14.7,0.2,21.9-2.1&#10;&#9;&#9;c5.1-1.7,7.7-4.6,7.8-8.8c0.1-4.8-2.8-8.3-7.7-9.3c-5.9-1.2-17.5-0.5-21.9-0.2L113.6,278.8z M117.8,244.3c-2.1,0-4.2-0.1-6.1-0.2&#10;&#9;&#9;c-1-0.1-1.8-0.9-1.8-1.9v-23.8c0-1,0.8-1.9,1.8-1.9c6.7-0.3,14.3-0.7,21.6,2.2c5.5,2.1,8.5,6.5,8.3,12c0,5-3.2,9.5-8,11.1&#10;&#9;&#9;C128.6,243.5,123.2,244.4,117.8,244.3L117.8,244.3z M113.8,240.3c5.7,0.3,12.2,0.1,18.5-2.3c3.3-1,5.6-4.1,5.6-7.6&#10;&#9;&#9;c0.1-3.8-1.9-6.7-5.8-8.2c-5.9-2.3-12.3-2.2-18.2-2L113.8,240.3z"/>
</g>
<g id="arrows_bitcoin-50">
	<path class="st2_bitcoin-50" d="M339.9,153.6c-27.9,11.1-49.7,33.8-59.6,62.1h-67.1V235l-63.7-50.3l28-22.1l35.6-28.2v19.2H339.9z"/>
	<path class="st1_bitcoin-50" d="M213.2,236.9c-0.4,0-0.9-0.2-1.2-0.4l-63.7-50.3c-0.8-0.7-1-1.9-0.3-2.7c0.1-0.1,0.2-0.2,0.3-0.3l63.6-50.3&#10;&#9;&#9;c0.8-0.7,2.1-0.5,2.7,0.3c0.3,0.3,0.4,0.8,0.4,1.2v17.3h124.8c1.1,0,1.9,0.9,1.9,1.9c0,0.8-0.5,1.5-1.2,1.8&#10;&#9;&#9;c-27.4,10.9-48.8,33.1-58.5,61c-0.3,0.8-1,1.3-1.8,1.3h-65.1V235c0,0.7-0.4,1.4-1.1,1.7C213.8,236.9,213.5,236.9,213.2,236.9z&#10;&#9;&#9; M152.7,184.7l58.6,46.3v-15.2c0-1.1,0.9-1.9,1.9-1.9c0,0,0,0,0,0h65.7c9.2-25.3,27.8-46.2,51.9-58.3H213.2c-1.1,0-1.9-0.9-1.9-1.9&#10;&#9;&#9;c0,0,0,0,0,0v-15.2L152.7,184.7z"/>
	<path class="st2_bitcoin-50" d="M348.8,315.3l-27.2,21.5l-36.4,28.8v-19.2h-125c27.9-11.1,49.7-33.8,59.6-62.1h65.4V265L348.8,315.3z"/>
	<path class="st1_bitcoin-50" d="M285.1,367.5c-0.3,0-0.6-0.1-0.8-0.2c-0.7-0.3-1.1-1-1.1-1.7v-17.3H160.1c-1.1,0-1.9-0.9-1.9-2&#10;&#9;&#9;c0-0.8,0.5-1.5,1.2-1.8c27.4-10.9,48.8-33.1,58.5-61c0.3-0.8,1-1.3,1.8-1.3h63.5V265c0-1.1,0.9-1.9,1.9-1.9c0.4,0,0.9,0.1,1.2,0.4&#10;&#9;&#9;l63.7,50.3c0.8,0.7,1,1.9,0.3,2.7c-0.1,0.1-0.2,0.2-0.3,0.3l-63.7,50.3C286,367.4,285.5,367.5,285.1,367.5z M169.1,344.4h116&#10;&#9;&#9;c1.1,0,1.9,0.9,1.9,1.9l0,0v15.2l58.6-46.3L287,269v15.2c0,1.1-0.9,1.9-1.9,1.9l0,0h-64C211.8,311.5,193.2,332.3,169.1,344.4&#10;&#9;&#9;L169.1,344.4z"/>
</g>
</svg>